{
  "source": "C:\\Users\\Peter\\Desktop\\stuff\\MIUN\\quantitative_research\\video_compression\\videos\\BVI-HD\\BVI-HD_CDVL_videos\\ORIG\\Bookcase_1920x1080_60fps.mp4",
  "output": "C:\\Users\\Peter\\Desktop\\stuff\\MIUN\\quantitative_research\\video_compression\\compressed_videos\\BVI-HD\\vp9\\1.5\\Bookcase_1920x1080_60fps_vp9.webm",
  "codec": "vp9",
  "ok": "Input #0, mov,mp4,m4a,3gp,3g2,mj2, from 'C:\\Users\\Peter\\Desktop\\stuff\\MIUN\\quantitative_research\\video_compression\\videos\\BVI-HD\\BVI-HD_CDVL_videos\\ORIG\\Bookcase_1920x1080_60fps.mp4':\n  Metadata:\n    major_brand     : isom\n    minor_version   : 512\n    compatible_brands: isomiso2avc1mp41\n    encoder         : Lavf54.28.101\n  Duration: 00:00:05.00, start: 0.000000, bitrate: 336321 kb/s\n  Stream #0:0[0x1](und): Video: h264 (High 4:4:4 Predictive) (avc1 / 0x31637661), yuv420p(progressive), 1920x1080, 336316 kb/s, 60 fps, 60 tbr, 60 tbn (default)\n    Metadata:\n      handler_name    : VideoHandler\n      vendor_id       : [0][0][0][0]\n[out#0/webm @ 000001f95452f040] Codec AVOption b:a (set bitrate (in bits/s)) has not been used for any stream. The most likely reason is either wrong type (e.g. a video option with no video streams) or that it is a private option of some decoder which was not actually used for any stream.\nStream mapping:\n  Stream #0:0 -> #0:0 (h264 (native) -> vp9 (libvpx-vp9))\nPress [q] to stop, [?] for help\n[libvpx-vp9 @ 000001f953caa000] v1.15.2-100-g40561f514\nOutput #0, webm, to 'C:\\Users\\Peter\\Desktop\\stuff\\MIUN\\quantitative_research\\video_compression\\compressed_videos\\BVI-HD\\vp9\\1.5\\Bookcase_1920x1080_60fps_vp9.webm':\n  Metadata:\n    major_brand     : isom\n    minor_version   : 512\n    compatible_brands: isomiso2avc1mp41\n    encoder         : Lavf62.3.100\n  Stream #0:0(und): Video: vp9, yuv420p(tv, progressive), 1920x1080, q=2-31, 1500 kb/s, 60 fps, 1k tbn (default)\n    Metadata:\n      encoder         : Lavc62.11.100 libvpx-vp9\n      handler_name    : VideoHandler\n      vendor_id       : [0][0][0][0]\n    Side data:\n      cpb: bitrate max/min/avg: 0/0/0 buffer size: 1500000 vbv_delay: N/A\nframe=    0 fps=0.0 q=0.0 size=       0KiB time=N/A bitrate=N/A speed=N/A elapsed=0:00:00.50    \nframe=    9 fps=8.8 q=45.0 size=       1KiB time=00:00:00.15 bitrate=  33.8kbits/s speed=0.146x elapsed=0:00:01.02    \nframe=   15 fps=9.5 q=40.0 size=       1KiB time=00:00:00.25 bitrate=  20.3kbits/s speed=0.159x elapsed=0:00:01.57    \nframe=   22 fps= 11 q=42.0 size=       1KiB time=00:00:00.36 bitrate=  13.8kbits/s speed=0.176x elapsed=0:00:02.08    \nframe=   29 fps= 11 q=42.0 size=       1KiB time=00:00:00.48 bitrate=  10.5kbits/s speed=0.186x elapsed=0:00:02.60    \nframe=   36 fps= 11 q=42.0 size=       1KiB time=00:00:00.60 bitrate=   8.4kbits/s speed=0.192x elapsed=0:00:03.13    \nframe=   44 fps= 12 q=39.0 size=       1KiB time=00:00:00.73 bitrate=   6.9kbits/s speed= 0.2x elapsed=0:00:03.67    \nframe=   50 fps= 12 q=36.0 size=       1KiB time=00:00:00.83 bitrate=   6.1kbits/s speed=0.199x elapsed=0:00:04.19    \nframe=   58 fps= 12 q=40.0 size=       1KiB time=00:00:00.96 bitrate=   5.2kbits/s speed=0.205x elapsed=0:00:04.72    \nframe=   64 fps= 12 q=39.0 size=       1KiB time=00:00:01.06 bitrate=   4.7kbits/s speed=0.204x elapsed=0:00:05.23    \nframe=   71 fps= 12 q=39.0 size=       1KiB time=00:00:01.18 bitrate=   4.3kbits/s speed=0.205x elapsed=0:00:05.76    \nframe=   78 fps= 12 q=42.0 size=       1KiB time=00:00:01.30 bitrate=   3.9kbits/s speed=0.207x elapsed=0:00:06.26    \nframe=   85 fps= 12 q=34.0 size=       1KiB time=00:00:01.41 bitrate=   3.6kbits/s speed=0.208x elapsed=0:00:06.81    \nframe=   92 fps= 13 q=44.0 size=       1KiB time=00:00:01.53 bitrate=   3.3kbits/s speed=0.209x elapsed=0:00:07.33    \nframe=   97 fps= 12 q=31.0 size=       1KiB time=00:00:01.61 bitrate=   3.1kbits/s speed=0.206x elapsed=0:00:07.85    \nframe=  103 fps= 12 q=36.0 size=       1KiB time=00:00:01.71 bitrate=   2.9kbits/s speed=0.205x elapsed=0:00:08.38    \nframe=  108 fps= 12 q=37.0 size=       1KiB time=00:00:01.80 bitrate=   2.8kbits/s speed=0.201x elapsed=0:00:08.94    \nframe=  111 fps= 12 q=37.0 size=       1KiB time=00:00:01.85 bitrate=   2.7kbits/s speed=0.195x elapsed=0:00:09.49    \nframe=  114 fps= 11 q=38.0 size=       1KiB time=00:00:01.88 bitrate=   2.7kbits/s speed=0.187x elapsed=0:00:10.05    \nframe=  117 fps= 11 q=48.0 size=       1KiB time=00:00:01.95 bitrate=   2.6kbits/s speed=0.183x elapsed=0:00:10.65    \nframe=  120 fps= 11 q=57.0 size=       1KiB time=00:00:02.00 bitrate=   2.5kbits/s speed=0.178x elapsed=0:00:11.24    \nframe=  124 fps= 11 q=33.0 size=       1KiB time=00:00:02.05 bitrate=   2.5kbits/s speed=0.174x elapsed=0:00:11.77    \nframe=  128 fps= 10 q=33.0 size=       1KiB time=00:00:02.13 bitrate=   2.4kbits/s speed=0.173x elapsed=0:00:12.32    \nframe=  132 fps= 10 q=33.0 size=     256KiB time=00:00:02.20 bitrate= 953.3kbits/s speed=0.171x elapsed=0:00:12.86    \nframe=  138 fps= 10 q=38.0 size=     256KiB time=00:00:02.30 bitrate= 911.8kbits/s speed=0.171x elapsed=0:00:13.41    \nframe=  142 fps= 10 q=34.0 size=     256KiB time=00:00:02.36 bitrate= 886.1kbits/s speed=0.169x elapsed=0:00:13.98    \nframe=  147 fps= 10 q=42.0 size=     256KiB time=00:00:02.45 bitrate= 856.0kbits/s speed=0.169x elapsed=0:00:14.52    \nframe=  151 fps= 10 q=49.0 size=     256KiB time=00:00:02.51 bitrate= 833.3kbits/s speed=0.166x elapsed=0:00:15.14    \nframe=  157 fps= 10 q=37.0 size=     256KiB time=00:00:02.61 bitrate= 801.5kbits/s speed=0.166x elapsed=0:00:15.75    \nframe=  162 fps=9.9 q=47.0 size=     256KiB time=00:00:02.70 bitrate= 776.7kbits/s speed=0.166x elapsed=0:00:16.29    \nframe=  167 fps=9.9 q=40.0 size=     256KiB time=00:00:02.76 bitrate= 758.0kbits/s speed=0.164x elapsed=0:00:16.84    \nframe=  171 fps=9.8 q=45.0 size=     256KiB time=00:00:02.85 bitrate= 735.8kbits/s speed=0.164x elapsed=0:00:17.41    \nframe=  175 fps=9.8 q=50.0 size=     256KiB time=00:00:02.91 bitrate= 719.0kbits/s speed=0.163x elapsed=0:00:17.92    \nframe=  179 fps=9.7 q=51.0 size=     256KiB time=00:00:02.98 bitrate= 703.0kbits/s speed=0.161x elapsed=0:00:18.47    \nframe=  184 fps=9.7 q=44.0 size=     256KiB time=00:00:03.06 bitrate= 683.9kbits/s speed=0.161x elapsed=0:00:19.01    \nframe=  187 fps=9.6 q=52.0 size=     256KiB time=00:00:03.11 bitrate= 672.9kbits/s speed=0.159x elapsed=0:00:19.56    \nframe=  192 fps=9.5 q=47.0 size=     256KiB time=00:00:03.18 bitrate= 658.8kbits/s speed=0.158x elapsed=0:00:20.10    \nframe=  196 fps=9.5 q=55.0 size=     256KiB time=00:00:03.26 bitrate= 642.0kbits/s speed=0.158x elapsed=0:00:20.65    \nframe=  201 fps=9.5 q=56.0 size=     256KiB time=00:00:03.35 bitrate= 626.0kbits/s speed=0.158x elapsed=0:00:21.18    \nframe=  207 fps=9.5 q=44.0 size=     256KiB time=00:00:03.45 bitrate= 607.9kbits/s speed=0.159x elapsed=0:00:21.74    \nframe=  211 fps=9.5 q=43.0 size=     256KiB time=00:00:03.51 bitrate= 596.3kbits/s speed=0.158x elapsed=0:00:22.32    \nframe=  215 fps=9.4 q=46.0 size=     256KiB time=00:00:03.58 bitrate= 585.3kbits/s speed=0.157x elapsed=0:00:22.86    \nframe=  219 fps=9.4 q=50.0 size=     256KiB time=00:00:03.65 bitrate= 574.6kbits/s speed=0.156x elapsed=0:00:23.39    \nframe=  223 fps=9.3 q=50.0 size=     256KiB time=00:00:03.71 bitrate= 564.3kbits/s speed=0.155x elapsed=0:00:23.96    \nframe=  227 fps=9.2 q=45.0 size=     256KiB time=00:00:03.78 bitrate= 554.3kbits/s speed=0.154x elapsed=0:00:24.54    \nframe=  232 fps=9.3 q=40.0 size=     256KiB time=00:00:03.86 bitrate= 542.4kbits/s speed=0.154x elapsed=0:00:25.06    \nframe=  237 fps=9.2 q=42.0 size=     256KiB time=00:00:03.95 bitrate= 530.9kbits/s speed=0.154x elapsed=0:00:25.63    \nframe=  241 fps=9.2 q=41.0 size=     256KiB time=00:00:04.01 bitrate= 522.1kbits/s speed=0.153x elapsed=0:00:26.17    \nframe=  245 fps=9.2 q=43.0 size=     256KiB time=00:00:04.08 bitrate= 513.6kbits/s speed=0.153x elapsed=0:00:26.73    \nframe=  250 fps=9.2 q=43.0 size=     256KiB time=00:00:04.16 bitrate= 503.3kbits/s speed=0.153x elapsed=0:00:27.29    \nframe=  255 fps=9.2 q=48.0 size=     256KiB time=00:00:04.23 bitrate= 495.4kbits/s speed=0.152x elapsed=0:00:27.83    \nframe=  258 fps=9.1 q=48.0 size=     768KiB time=00:00:04.30 bitrate=1463.1kbits/s speed=0.151x elapsed=0:00:28.43    \nframe=  263 fps=9.1 q=39.0 size=     768KiB time=00:00:04.38 bitrate=1435.3kbits/s speed=0.151x elapsed=0:00:28.96    \nframe=  268 fps=9.1 q=40.0 size=     768KiB time=00:00:04.46 bitrate=1408.5kbits/s speed=0.151x elapsed=0:00:29.50    \nframe=  272 fps=9.0 q=42.0 size=     768KiB time=00:00:04.53 bitrate=1387.8kbits/s speed=0.151x elapsed=0:00:30.11    \nframe=  276 fps=9.0 q=48.0 size=     768KiB time=00:00:04.60 bitrate=1367.7kbits/s speed=0.15x elapsed=0:00:30.66    \nframe=  276 fps=8.9 q=48.0 size=     768KiB time=00:00:04.60 bitrate=1367.7kbits/s speed=0.148x elapsed=0:00:31.17    \nframe=  276 fps=8.7 q=48.0 size=     768KiB time=00:00:04.60 bitrate=1367.7kbits/s speed=0.145x elapsed=0:00:31.69    \nframe=  276 fps=8.5 q=48.0 size=     768KiB time=00:00:04.60 bitrate=1367.7kbits/s speed=0.142x elapsed=0:00:32.30    \nframe=  276 fps=8.4 q=48.0 size=     768KiB time=00:00:04.60 bitrate=1367.7kbits/s speed=0.14x elapsed=0:00:32.87    \nframe=  276 fps=8.2 q=48.0 size=     768KiB time=00:00:04.60 bitrate=1367.7kbits/s speed=0.137x elapsed=0:00:33.48    \n[out#0/webm @ 000001f95452f040] video:1190KiB audio:0KiB subtitle:0KiB other streams:0KiB global headers:0KiB muxing overhead: 0.233072%\nframe=  300 fps=8.9 q=45.0 Lsize=    1193KiB time=00:00:05.00 bitrate=1954.2kbits/s speed=0.148x elapsed=0:00:33.71    \n",
  "seconds": 34.05602693557739,
  "probe_out": {}
}